<svg xmlns="http://www.w3.org/2000/svg" width="61.597" height="18.563" viewBox="0 0 61.597 18.563"><defs><style>.a{fill:#f90;}.a,.b{fill-rule:evenodd;}</style></defs><path class="a" d="M120.819,127.4a23.465,23.465,0,0,1-13.235,4.046,23.949,23.949,0,0,1-16.168-6.17c-.335-.3-.035-.716.367-.48a32.541,32.541,0,0,0,16.176,4.29,32.167,32.167,0,0,0,12.339-2.523c.606-.257,1.113.4.52.837" transform="translate(-82.605 -112.888)"/><path class="a" d="M375.481,119.565c-.456-.585-3.025-.276-4.177-.139-.351.043-.4-.263-.089-.483,2.046-1.44,5.4-1.024,5.794-.542s-.1,3.85-2.024,5.456c-.295.247-.576.115-.445-.212.432-1.078,1.4-3.494.941-4.081" transform="translate(-335.779 -106.751)"/><path class="b" d="M371.587,4.634v-1.4a.345.345,0,0,1,.354-.354h6.266a.349.349,0,0,1,.362.354v1.2a1.972,1.972,0,0,1-.472.879L374.85,9.949a6.918,6.918,0,0,1,3.574.767.638.638,0,0,1,.332.544v1.493c0,.2-.225.442-.461.319a7.218,7.218,0,0,0-6.62.011c-.217.118-.445-.118-.445-.322V11.343a1.692,1.692,0,0,1,.231-.963l3.762-5.395h-3.274a.347.347,0,0,1-.362-.351" transform="translate(-335.982 -2.607)"/><path class="b" d="M112.831,11.655h-1.906a.36.36,0,0,1-.341-.324V1.547a.358.358,0,0,1,.367-.351h1.778a.359.359,0,0,1,.346.327V2.8h.035a2.62,2.62,0,0,1,4.985,0,2.815,2.815,0,0,1,4.84-.743c.6.823.48,2.019.48,3.067l0,6.175a.36.36,0,0,1-.367.354h-1.9a.362.362,0,0,1-.343-.354V6.116a12.246,12.246,0,0,0-.054-1.834.993.993,0,0,0-1.121-.842,1.266,1.266,0,0,0-1.14.8,5.923,5.923,0,0,0-.177,1.874V11.3a.36.36,0,0,1-.367.354h-1.9a.36.36,0,0,1-.343-.354l0-5.186c0-1.091.18-2.7-1.174-2.7-1.37,0-1.317,1.566-1.317,2.7V11.3a.36.36,0,0,1-.367.354" transform="translate(-100.084 -0.895)"/><path class="b" d="M464.445.989c2.829,0,4.36,2.429,4.36,5.518,0,2.984-1.692,5.352-4.36,5.352-2.778,0-4.29-2.429-4.29-5.456,0-3.046,1.531-5.414,4.29-5.414m.016,2c-1.4,0-1.493,1.914-1.493,3.108s-.019,3.748,1.477,3.748c1.477,0,1.547-2.059,1.547-3.314a9.042,9.042,0,0,0-.284-2.6,1.193,1.193,0,0,0-1.247-.946" transform="translate(-416.463 -0.895)"/><path class="b" d="M568.492,11.655h-1.9a.362.362,0,0,1-.343-.354l0-9.787a.361.361,0,0,1,.367-.319h1.767a.365.365,0,0,1,.34.273v1.5h.035a2.593,2.593,0,0,1,2.6-1.976,2.5,2.5,0,0,1,2.226,1.153,6.218,6.218,0,0,1,.5,3.046v6.159a.366.366,0,0,1-.367.308H571.8a.361.361,0,0,1-.338-.308V6.032c0-1.07.123-2.636-1.193-2.636a1.246,1.246,0,0,0-1.1.783,4.33,4.33,0,0,0-.3,1.853V11.3a.366.366,0,0,1-.373.354" transform="translate(-512.483 -0.895)"/><path class="b" d="M268.833,6.087a3.729,3.729,0,0,1-.357,2.022,1.549,1.549,0,0,1-1.319.866c-.732,0-1.161-.558-1.161-1.381,0-1.625,1.456-1.92,2.837-1.92v.413m1.922,4.647a.4.4,0,0,1-.451.046,4.648,4.648,0,0,1-1.094-1.271,3.775,3.775,0,0,1-3.142,1.386,2.7,2.7,0,0,1-2.853-2.971,3.235,3.235,0,0,1,2.032-3.116,13.21,13.21,0,0,1,3.585-.662V3.9a2.432,2.432,0,0,0-.233-1.381,1.269,1.269,0,0,0-1.07-.5A1.45,1.45,0,0,0,266,3.167a.4.4,0,0,1-.333.349l-1.847-.2a.336.336,0,0,1-.284-.4C263.958.676,265.985,0,267.8,0a4.322,4.322,0,0,1,2.872.949c.928.866.839,2.022.839,3.279V7.2a2.607,2.607,0,0,0,.719,1.767.361.361,0,0,1-.008.507c-.389.324-1.081.928-1.461,1.266l0-.005" transform="translate(-238.223 0)"/><path class="b" d="M5.617,6.087a3.729,3.729,0,0,1-.357,2.022,1.546,1.546,0,0,1-1.319.866c-.732,0-1.158-.558-1.158-1.381,0-1.625,1.456-1.92,2.834-1.92v.413M7.54,10.734a.4.4,0,0,1-.45.046A4.694,4.694,0,0,1,6,9.508a3.772,3.772,0,0,1-3.142,1.386A2.705,2.705,0,0,1,0,7.924,3.239,3.239,0,0,1,2.032,4.808a13.209,13.209,0,0,1,3.585-.662V3.9a2.453,2.453,0,0,0-.231-1.381,1.276,1.276,0,0,0-1.07-.5A1.453,1.453,0,0,0,2.783,3.167a.4.4,0,0,1-.33.349L.6,3.317a.338.338,0,0,1-.284-.4C.745.676,2.77,0,4.582,0A4.322,4.322,0,0,1,7.454.95c.928.866.839,2.022.839,3.279V7.2a2.607,2.607,0,0,0,.719,1.767.358.358,0,0,1-.005.507c-.389.324-1.081.928-1.461,1.266l-.005-.005" transform="translate(0 0)"/></svg>