<svg xmlns="http://www.w3.org/2000/svg" width="100" height="19.634" viewBox="0 0 100 19.634"><path d="M.147,13.328l1.265-.2V1.448L0,1.265.073,0H8.909l-.22,3.538L6.93,3.483,6.82,1.265H4.088V6.526H5.28l.275-1.21,1.228.037v3.63H5.555L5.261,7.736H4.07v5.573H6.82l.257-2.42,1.852.055.147,3.685H.092Z"/><path d="M53.51,33.513l.055-1.082.99-.2V24.86L53.4,24.75v-1.1l2.9-.422.22.623v.422A3.481,3.481,0,0,1,59.138,23.1a2.586,2.586,0,0,1,2.75,2.841v6.27l1.045.2-.055,1.082H59.431v-7c0-1.008-.367-1.577-1.283-1.577a1.988,1.988,0,0,0-.77.147,3.556,3.556,0,0,0-.422.477v6.71l1.045.2-.073,1.082H53.51Z" transform="translate(-43.611 -18.865)"/><path d="M355.528,33.513l.037-1.082.99-.2V24.86l-1.155-.11v-1.1l2.9-.422.22.623v.422a3.481,3.481,0,0,1,2.622-1.173,2.586,2.586,0,0,1,2.75,2.841v6.27l1.045.2-.055,1.082H361.45v-7c0-1.008-.367-1.577-1.283-1.577a1.988,1.988,0,0,0-.77.147,3.555,3.555,0,0,0-.422.477v6.71l1.045.2-.073,1.082h-4.418Z" transform="translate(-290.289 -18.865)"/><path d="M110.291,25.308a5.613,5.613,0,0,1-2.053.348,2.121,2.121,0,0,1-2.365-2.347V16.856l-1.173-.183.055-1.283,1.32-.055.568-1.962,1.687-.073v2.108h1.815l-.128,1.283-1.668.183v6.453a.791.791,0,0,0,.843.88h.99Z" transform="translate(-85.518 -10.862)"/><path d="M508.928,34l.037-1.063.935-.22V25.35l-1.1-.11v-1.1l3.007-.422.2.715v.238a5.189,5.189,0,0,1,3.135-.972l.44.385-.312,2.786-1.65-.055-.165-1.485a2.4,2.4,0,0,0-1.063.385v7.021l1.045.22-.073,1.063h-4.436Z" transform="translate(-415.583 -19.355)"/><path d="M273.51,34l.055-1.063.935-.22V25.35l-1.1-.11v-1.1l3.006-.422.2.715v.238a5.189,5.189,0,0,1,3.135-.972l.44.385-.348,2.786-1.65-.055-.165-1.485a2.4,2.4,0,0,0-1.063.385v7.021l1.045.22-.073,1.063H273.51Z" transform="translate(-223.31 -19.355)"/><path d="M138.71,34l.055-1.063.935-.22V25.35l-1.1-.11v-1.1l3.006-.422.2.715v.238a5.173,5.173,0,0,1,3.117-.972l.44.385-.312,2.786-1.65-.055-.165-1.485a2.4,2.4,0,0,0-1.063.385v7.021l1.045.22-.073,1.063H138.71Z" transform="translate(-113.207 -19.355)"/><path d="M179.485,28.94c0,1.76.77,3.116,2.292,3.116a4.677,4.677,0,0,0,2.145-.513l.422.972a5.105,5.105,0,0,1-3.226,1.063c-2.676,0-4.216-2.31-4.216-5.28,0-2.53,1.118-5.3,4.18-5.3,2.676,0,3.685,2.475,3.685,5.225l-.257.66Zm-.037-1.173,3.08-.147c-.055-1.228-.312-3.171-1.522-3.171a1.708,1.708,0,0,0-.862.238A7.376,7.376,0,0,0,179.448,27.766Z" transform="translate(-144.49 -18.784)"/><path d="M411.885,28.94c0,1.76.77,3.116,2.292,3.116a4.678,4.678,0,0,0,2.145-.513l.422.972a5.105,5.105,0,0,1-3.227,1.063c-2.676,0-4.216-2.31-4.216-5.28,0-2.53,1.118-5.3,4.18-5.3,2.676,0,3.685,2.475,3.685,5.225l-.257.66Zm-.037-1.173,3.08-.147c-.055-1.228-.312-3.171-1.522-3.171a1.709,1.709,0,0,0-.862.238A7.377,7.377,0,0,0,411.848,27.766Z" transform="translate(-334.313 -18.784)"/><path d="M314.285,28.94c0,1.76.77,3.116,2.292,3.116a4.677,4.677,0,0,0,2.145-.513l.422.972a5.105,5.105,0,0,1-3.226,1.063c-2.676,0-4.216-2.31-4.216-5.28,0-2.53,1.118-5.3,4.18-5.3,2.676,0,3.685,2.475,3.685,5.225l-.257.66Zm-.037-1.173,3.08-.147c-.055-1.228-.312-3.171-1.522-3.171a1.708,1.708,0,0,0-.862.238A7.1,7.1,0,0,0,314.248,27.766Z" transform="translate(-254.594 -18.784)"/><path d="M459.865,33.676l-.257-.88a3.182,3.182,0,0,1-2.365,1.027,2.716,2.716,0,0,1-2.988-2.97V24.767l-1.155-.11v-.972l3.336-.385.257.88v6.38c0,1.118.458,1.7,1.357,1.7a2.6,2.6,0,0,0,.88-.147,3.455,3.455,0,0,0,.458-.568V24.767l-1.192-.11v-.972l3.373-.385.257.88v8.213l1.045.2-.128,1.082Z" transform="translate(-370.094 -19.029)"/><path d="M225.376,32.193a2.613,2.613,0,0,1-1.283-.275V25.447a5.335,5.335,0,0,1,.477-.6,2.6,2.6,0,0,1,.917-.147c1.375,0,1.613,1.393,1.613,3.886a7.891,7.891,0,0,1-.458,3.336A2.847,2.847,0,0,1,225.376,32.193Zm4.106-4.051c0-3.1-.917-5.041-3.208-5.041a3.035,3.035,0,0,0-2.53,1.247V24l-.257-.88-2.988.422V24.6l1.155.147v12.5l-.99.2L220.61,38.5h4.418l.073-1.045-1.045-.2v-3.96a3.428,3.428,0,0,0,1.65.385C229.446,33.678,229.483,29.883,229.483,28.141Z" transform="translate(-180.103 -18.865)"/></svg>