<svg xmlns="http://www.w3.org/2000/svg" width="88.969" height="9.78" viewBox="0 0 88.969 9.78"><defs><style>.a{fill:#677b8c;}</style></defs><g transform="translate(0 0)"><path class="a" d="M206.889,385.972v1.239a.127.127,0,0,1-.135.135h-5.321v2.533h4.392a.127.127,0,0,1,.135.135v1.239a.127.127,0,0,1-.135.135h-4.392v3.745a.127.127,0,0,1-.135.135h-1.334a.127.127,0,0,1-.135-.135v-9.161a.127.127,0,0,1,.135-.135h6.79A.127.127,0,0,1,206.889,385.972Z" transform="translate(-199.83 -385.662)"/><path class="a" d="M326.335,395.267h-1.468a.147.147,0,0,1-.155-.121c-.2-.775-.431-1.59-.7-2.411H319.5c-.269.822-.505,1.637-.694,2.411a.147.147,0,0,1-.155.121h-1.414c-.094,0-.148-.054-.121-.148a62.734,62.734,0,0,1,3.449-9.107.258.258,0,0,1,.263-.175h1.913a.258.258,0,0,1,.263.175,61.671,61.671,0,0,1,3.449,9.107C326.483,395.213,326.429,395.267,326.335,395.267Zm-2.822-3.988c-.492-1.361-1.037-2.721-1.6-3.961H321.6c-.559,1.239-1.111,2.6-1.6,3.961Z" transform="translate(-308.418 -385.662)"/><path class="a" d="M474.014,388.446a4.625,4.625,0,0,1,4.675-4.971h.2a4.2,4.2,0,0,1,3.765,2.142.119.119,0,0,1-.047.189l-1.186.586a.164.164,0,0,1-.236-.061,2.506,2.506,0,0,0-2.351-1.32h-.2c-1.731,0-2.923,1.374-2.923,3.368s1.172,3.341,2.923,3.341h.2a2.766,2.766,0,0,0,2.3-.97.171.171,0,0,1,.222-.047l1.219.593a.112.112,0,0,1,.067.094.178.178,0,0,1-.04.1,4.4,4.4,0,0,1-3.738,1.765h-.2A4.464,4.464,0,0,1,474.014,388.446Z" transform="translate(-453.686 -383.475)"/><path class="a" d="M643.614,393.893v1.239a.127.127,0,0,1-.135.135h-7.073a.127.127,0,0,1-.135-.135v-9.161a.127.127,0,0,1,.135-.135h6.951a.127.127,0,0,1,.135.135v1.239a.127.127,0,0,1-.135.135h-5.483V389.8h4.459a.127.127,0,0,1,.135.135v1.226a.127.127,0,0,1-.135.135h-4.459v2.465h5.6A.127.127,0,0,1,643.614,393.893Z" transform="translate(-603.914 -385.662)"/><path class="a" d="M796.263,392.681c0,1.65-1.266,2.587-3.5,2.587h-4.634a.127.127,0,0,1-.135-.135v-9.161a.127.127,0,0,1,.135-.135h4.224c2.176,0,3.361.862,3.361,2.438a1.972,1.972,0,0,1-1.59,2.034A2.335,2.335,0,0,1,796.263,392.681Zm-3.947-5.375h-2.721v2.533h2.721c1.219,0,1.778-.4,1.778-1.266S793.535,387.305,792.315,387.305Zm2.3,5.234c0-.876-.579-1.273-1.852-1.273h-3.173V393.8h3.173C794.06,393.8,794.619,393.422,794.619,392.539Z" transform="translate(-744.384 -385.662)"/><path class="a" d="M937.62,388.365a4.621,4.621,0,0,1,4.85-4.89h.2a4.89,4.89,0,0,1,0,9.78h-.2A4.621,4.621,0,0,1,937.62,388.365Zm5.052,3.354a3.361,3.361,0,0,0,0-6.709h-.2a3.361,3.361,0,0,0,0,6.709Z" transform="translate(-882.919 -383.475)"/><path class="a" d="M1108.054,388.365a4.621,4.621,0,0,1,4.85-4.89h.2a4.89,4.89,0,0,1,0,9.78h-.2A4.621,4.621,0,0,1,1108.054,388.365Zm5.052,3.354a3.361,3.361,0,0,0,0-6.709h-.2a3.361,3.361,0,0,0,0,6.709Z" transform="translate(-1040.717 -383.475)"/><path class="a" d="M1295.363,395.267h-1.738a.256.256,0,0,1-.236-.114,36.818,36.818,0,0,0-3.887-3.914h-.781v3.893a.127.127,0,0,1-.135.135h-1.334a.127.127,0,0,1-.135-.135v-9.161a.127.127,0,0,1,.135-.135h1.334a.127.127,0,0,1,.135.135v3.718h.795a28.935,28.935,0,0,0,3.516-3.752.216.216,0,0,1,.2-.1h1.644c.081,0,.121.04.121.094a.167.167,0,0,1-.047.1,33.554,33.554,0,0,1-4.21,4.378,40.6,40.6,0,0,1,4.695,4.688C1295.511,395.186,1295.471,395.267,1295.363,395.267Z" transform="translate(-1206.505 -385.662)"/></g></svg>