<svg xmlns="http://www.w3.org/2000/svg" width="62" height="15.555" viewBox="0 0 62 15.555"><defs><style>.a{fill:#231f20;}</style></defs><path class="a" d="M36.147,7.07c0-1.815.031-3.505.125-5.07l-4.788.908v.438l.469.063a.864.864,0,0,1,.689.344,2.769,2.769,0,0,1,.282,1c.063.908.125,2.973.094,6.228,0,3.224-.031,5.258-.094,6.04a19.775,19.775,0,0,0,4.069.532A5.858,5.858,0,0,0,41.4,15.927a6.03,6.03,0,0,0,1.627-4.413,5.5,5.5,0,0,0-1.221-3.662,3.837,3.837,0,0,0-3.067-1.44A6.123,6.123,0,0,0,36.147,7.07Zm.094,9.64c-.063-1-.125-4.006-.125-8.92a3.605,3.605,0,0,1,1.127-.156,1.974,1.974,0,0,1,1.784,1.158,5.806,5.806,0,0,1,.657,2.911,8.033,8.033,0,0,1-.751,3.662c-.5.97-1.127,1.471-1.909,1.471A5.842,5.842,0,0,0,36.241,16.71ZM13.519,2.313H1v.626L1.657,3a1.664,1.664,0,0,1,1.064.563,2.909,2.909,0,0,1,.376,1.5,59.479,59.479,0,0,1,0,9.452,3.7,3.7,0,0,1-.376,1.5,1.426,1.426,0,0,1-1.064.563L1,16.678V17.3H9.075v-.626l-.845-.063a1.535,1.535,0,0,1-1.064-.563,2.909,2.909,0,0,1-.376-1.5c-.094-1.252-.156-2.692-.156-4.288l1.69.031c.908.031,1.534.72,1.847,2.1H10.8v-5.1H10.17c-.313,1.346-.908,2.034-1.847,2.066l-1.69.031c0-2.817.063-4.82.156-6.04H9.262c1.753,0,2.942,1.127,3.63,3.38l.751-.219Zm-1.471,9.64a6.013,6.013,0,0,0,1.377,4.037,4.921,4.921,0,0,0,3.943,1.565,5.26,5.26,0,0,0,4.069-1.627,5.635,5.635,0,0,0,1.471-4.037,6.013,6.013,0,0,0-1.377-4.037,4.921,4.921,0,0,0-3.943-1.565,5.26,5.26,0,0,0-4.069,1.627,5.635,5.635,0,0,0-1.471,4.037Zm6.979-3.568a9.457,9.457,0,0,1,.532,3.537c0,3.318-.689,4.945-2.034,4.945q-1.033,0-1.6-1.408a9.676,9.676,0,0,1-.532-3.537c0-3.286.689-4.914,2.034-4.914C18.12,6.976,18.652,7.446,19.027,8.385ZM45.473,15.99a5.332,5.332,0,0,0,3.912,1.565,5.266,5.266,0,0,0,2.566-.595A4.711,4.711,0,0,0,53.7,15.552l-.313-.376a3.749,3.749,0,0,1-2.379.782,3.429,3.429,0,0,1-2.879-1.252,4.628,4.628,0,0,1-.939-3.286h6.7a5.668,5.668,0,0,0-1.158-3.693,4.042,4.042,0,0,0-3.286-1.408A5.146,5.146,0,0,0,45.38,7.978a5.859,5.859,0,0,0-1.44,4.037,5.354,5.354,0,0,0,1.534,3.975Zm2.316-7.856c.344-.751.782-1.127,1.377-1.127.939,0,1.408,1.189,1.408,3.6l-3.318.063a6.542,6.542,0,0,1,.532-2.535ZM62.311,6.882a7.851,7.851,0,0,0-3.192-.595,4.694,4.694,0,0,0-3.13,1A3.081,3.081,0,0,0,54.8,9.73a2.673,2.673,0,0,0,.72,1.972,5.93,5.93,0,0,0,2.191,1.221,5.951,5.951,0,0,1,1.815.908,1.553,1.553,0,0,1,0,2.285,1.677,1.677,0,0,1-1.314.5c-1.377,0-2.41-1-3.13-3l-.532.156.125,3.13a10.284,10.284,0,0,0,3.756.657,5.143,5.143,0,0,0,3.349-.97A3.186,3.186,0,0,0,63,13.924a2.73,2.73,0,0,0-.595-1.847,5.13,5.13,0,0,0-2-1.252,7.823,7.823,0,0,1-2.128-1.033,1.437,1.437,0,0,1-.563-1.158,1.639,1.639,0,0,1,.407-1.158,1.33,1.33,0,0,1,1.064-.438c1.252,0,2.16.908,2.723,2.692l.532-.156ZM32.2,6.6a3.134,3.134,0,0,0-1.44-.313,2.811,2.811,0,0,0-1.659.657,4.229,4.229,0,0,0-1.377,1.847l.031-2.5L23,7.227v.438l.469.031c.595.063.939.532,1,1.377a34.122,34.122,0,0,1,0,6.2c-.063.845-.407,1.283-1,1.377L23,16.71V17.3h6.635V16.71l-.845-.063c-.595-.063-.939-.532-1-1.377a31.972,31.972,0,0,1-.063-5.759,1.508,1.508,0,0,1,1.221-.563,3.543,3.543,0,0,1,2.1.563L32.2,6.6Z" transform="translate(-1 -2)"/></svg>