<svg xmlns="http://www.w3.org/2000/svg" width="57.765" height="19.015" viewBox="0 0 57.765 19.015"><defs><style>.a{fill:#ea4335;}.b{fill:#fbbc05;}.c{fill:#4285f4;}.d{fill:#34a853;}</style></defs><g transform="translate(0)"><path class="a" d="M80.783,29.752A4.767,4.767,0,1,1,76.017,25,4.693,4.693,0,0,1,80.783,29.752Zm-2.087,0a2.687,2.687,0,1,0-2.68,2.879A2.736,2.736,0,0,0,78.7,29.752Z" transform="translate(-56.063 -19.745)"/><path class="b" d="M128.783,29.752A4.767,4.767,0,1,1,124.017,25,4.693,4.693,0,0,1,128.783,29.752Zm-2.087,0a2.687,2.687,0,1,0-2.68,2.879A2.736,2.736,0,0,0,126.7,29.752Z" transform="translate(-93.78 -19.745)"/><path class="c" d="M176.339,25.287v8.531c0,3.509-2.069,4.942-4.516,4.942a4.525,4.525,0,0,1-4.212-2.8l1.817-.756a2.625,2.625,0,0,0,2.393,1.686c1.566,0,2.536-.966,2.536-2.785v-.683h-.073a3.235,3.235,0,0,1-2.5,1.08,4.755,4.755,0,0,1,0-9.5,3.293,3.293,0,0,1,2.5,1.063h.073v-.773h1.982Zm-1.834,4.482a2.677,2.677,0,0,0-2.536-2.9,2.89,2.89,0,0,0,0,5.758A2.656,2.656,0,0,0,174.505,29.769Z" transform="translate(-131.482 -19.745)"/><path class="d" d="M217.535,3V16.925H215.5V3Z" transform="translate(-169.411 -2.458)"/><path class="a" d="M236.145,31.308l1.62,1.08a4.73,4.73,0,0,1-3.959,2.106,4.649,4.649,0,0,1-4.715-4.752,4.515,4.515,0,0,1,4.482-4.752,4.413,4.413,0,0,1,4.066,3.023l.216.54L231.5,31.183a2.418,2.418,0,0,0,2.3,1.44,2.712,2.712,0,0,0,2.339-1.315Zm-4.985-1.71,4.246-1.763a1.84,1.84,0,0,0-1.763-1.007A2.606,2.606,0,0,0,231.159,29.6Z" transform="translate(-180.089 -19.737)"/><path class="c" d="M7.843,9.241V7.225h6.793a6.68,6.68,0,0,1,.1,1.217,6.657,6.657,0,0,1-1.746,4.715,6.747,6.747,0,0,1-5.146,2.069A7.482,7.482,0,0,1,.36,7.848,7.482,7.482,0,0,1,7.845.47,7.03,7.03,0,0,1,12.9,2.5L11.478,3.926a5.139,5.139,0,0,0-3.635-1.44A5.292,5.292,0,0,0,2.552,7.848,5.292,5.292,0,0,0,7.843,13.21a4.936,4.936,0,0,0,3.725-1.476,4.178,4.178,0,0,0,1.093-2.5Z" transform="translate(-0.36 -0.47)"/></g></svg>