<svg xmlns="http://www.w3.org/2000/svg" width="132.326" height="22.154" viewBox="0 0 132.326 22.154"><defs><style>.a{fill:#ed403a;}.b{fill:#fff;}</style></defs><path d="M81.366,23.586a12.6,12.6,0,0,1,1.342.14,2.377,2.377,0,0,1,.041.769H78.725a3.347,3.347,0,0,1,.181-.741,9.589,9.589,0,0,1,1.174-.182V15.647H77.816c-.028.322-.126.937-.181,1.189a3.98,3.98,0,0,1-.839.084V14.794h7.855v2.181a3.982,3.982,0,0,1-.852-.1,10.942,10.942,0,0,1-.182-1.23h-2.25v7.939Zm6.175.056a5.107,5.107,0,0,1,1.02.181,2.118,2.118,0,0,1,.029.671H85.236a1.953,1.953,0,0,1,.2-.628,5.082,5.082,0,0,1,.9-.266V15.214H85.32a1.612,1.612,0,0,1,.252-.741,3.829,3.829,0,0,1,1.258-.2,2.86,2.86,0,0,1,.713.083v2.7c0,.572-.028,1.174-.07,1.747h.14a2.264,2.264,0,0,1,2.194-1.187c1.118,0,2.111.349,2.111,2.515,0,1.174-.028,2.334-.084,3.508a6.175,6.175,0,0,1,1.132.181,2,2,0,0,1,.042.433,1.337,1.337,0,0,1-.014.238H89.68a1.944,1.944,0,0,1,.2-.628,4.75,4.75,0,0,1,.8-.266V20.329c0-1.076-.35-1.761-1.342-1.761a2.54,2.54,0,0,0-1.789.9Zm7.546-2.306a2.241,2.241,0,0,0,2.278,2.418,6.4,6.4,0,0,0,1.957-.391,1.516,1.516,0,0,1-.182.8,4.818,4.818,0,0,1-2.208.574,3.116,3.116,0,0,1-3.145-3.425c0-2.054,1.272-3.689,3.228-3.689,1.678,0,2.39,1.216,2.39,2.977a6.94,6.94,0,0,1-.041.74H95.087Zm3.074-.811c.1-.964-.181-2.139-1.355-2.139-.992,0-1.635.867-1.719,2.139Zm5.155,3.969a3.342,3.342,0,0,1,.167-.741,8.191,8.191,0,0,1,1.09-.182V15.689a10.036,10.036,0,0,1-1.034-.1,3.029,3.029,0,0,1-.027-.8h3.522a2.129,2.129,0,0,1-.028.783,9.731,9.731,0,0,1-1.146.111v7.9a10.712,10.712,0,0,1,1.244.14,2.184,2.184,0,0,1,.056.545,1.256,1.256,0,0,1-.014.224h-3.829Zm7.029-.852a4.936,4.936,0,0,1,1.02.181,2.118,2.118,0,0,1,.028.671H108.04a1.944,1.944,0,0,1,.2-.628,5.067,5.067,0,0,1,.895-.266V18.638H108.11a1.625,1.625,0,0,1,.252-.741,3.53,3.53,0,0,1,1.16-.2,2.425,2.425,0,0,1,.657.083v1.02h.139a2.509,2.509,0,0,1,2.251-1.187c1.1,0,2.082.349,2.082,2.515,0,1.174-.028,2.321-.084,3.508a6.165,6.165,0,0,1,1.132.181,1.977,1.977,0,0,1,.042.433,1.375,1.375,0,0,1-.014.238h-3.313a1.934,1.934,0,0,1,.2-.628,4.767,4.767,0,0,1,.8-.266V20.33c0-1.076-.335-1.761-1.314-1.761a2.468,2.468,0,0,0-1.747.9v4.178Zm10.285-5.786a5.785,5.785,0,0,1,.07.81h-1.9V23.6a8.078,8.078,0,0,1,1.384.251,1.956,1.956,0,0,1,.028.643h-3.717a1.915,1.915,0,0,1,.2-.628,5.068,5.068,0,0,1,.894-.266V18.666h-1.1a2.3,2.3,0,0,1,.167-.726,6.42,6.42,0,0,1,.936-.252v-.755a2.342,2.342,0,0,1,2.46-2.642,5.259,5.259,0,0,1,1.523.238,2.607,2.607,0,0,1,.042.475,3.9,3.9,0,0,1-.2,1.23,1.868,1.868,0,0,1-.825-.223v-.937a1.036,1.036,0,0,0-.447-.1c-.741,0-1.342.377-1.342,1.817v1.062Zm7.127,3.215c0,2.333-1.244,3.662-3.173,3.662-2.041,0-3.187-1.259-3.187-3.662a3.158,3.158,0,0,1,3.187-3.452c1.9,0,3.173,1.23,3.173,3.452Zm-3.173,2.822c1.286,0,1.9-1.09,1.9-2.822,0-1.5-.74-2.628-1.9-2.628-1.244,0-1.915,1.048-1.915,2.628C122.67,22.776,123.4,23.893,124.585,23.893Zm6.512-4.78a1.87,1.87,0,0,1,1.817-1.5,1.989,1.989,0,0,1,.629.111,1.825,1.825,0,0,1,.181.838,1.6,1.6,0,0,1-.041.378,1.917,1.917,0,0,0-.95-.237,1.73,1.73,0,0,0-1.608,1.146V23.6a6.941,6.941,0,0,1,1.384.251,1.957,1.957,0,0,1,.028.643h-3.717a1.951,1.951,0,0,1,.194-.628,5.1,5.1,0,0,1,.9-.266V18.638h-1.021a1.63,1.63,0,0,1,.252-.741,3.669,3.669,0,0,1,1.161-.2,2.42,2.42,0,0,1,.657.083v1.328Zm5.771,4.529a4.936,4.936,0,0,1,1.02.181,2.129,2.129,0,0,1,.028.671H134.56a1.925,1.925,0,0,1,.2-.628,5.067,5.067,0,0,1,.895-.266V18.638H134.63a1.616,1.616,0,0,1,.252-.741,3.533,3.533,0,0,1,1.161-.2,2.427,2.427,0,0,1,.657.083v1.02h.14a2.466,2.466,0,0,1,2.209-1.187,1.647,1.647,0,0,1,1.858,1.272h.07a2.45,2.45,0,0,1,2.25-1.272c1.091,0,2.054.349,2.054,2.515,0,1.188-.028,2.362-.084,3.508a6.19,6.19,0,0,1,1.133.181,2,2,0,0,1,.042.433,1.337,1.337,0,0,1-.014.238h-3.313a1.933,1.933,0,0,1,.195-.628,4.759,4.759,0,0,1,.8-.266V20.33c0-1.076-.322-1.761-1.285-1.761a2.422,2.422,0,0,0-1.706.9v4.165a4.873,4.873,0,0,1,1.021.2,2.129,2.129,0,0,1,.027.671h-3.229a1.934,1.934,0,0,1,.2-.628,4.743,4.743,0,0,1,.8-.266V20.33c0-1.076-.322-1.761-1.286-1.761a2.4,2.4,0,0,0-1.7.9v4.178Zm14.322.028a2.147,2.147,0,0,1-1.956,1.063,1.824,1.824,0,0,1-1.985-1.874c0-1.44,1.216-2.181,2.6-2.181a3.469,3.469,0,0,1,1.3.239v-.755c0-1.034-.447-1.565-1.327-1.565a4.44,4.44,0,0,0-2.041.684,1.219,1.219,0,0,1-.07-.475,1.57,1.57,0,0,1,.153-.7,5.717,5.717,0,0,1,2.279-.489c1.524,0,2.195.741,2.195,2.655v2.712a1.261,1.261,0,0,0,.181.727,4.349,4.349,0,0,0,.965-.167.634.634,0,0,1,.014.154,1.488,1.488,0,0,1-.139.63,3.551,3.551,0,0,1-1.51.405,1.489,1.489,0,0,1-.587-1.063h-.071Zm-.028-2.139a4.565,4.565,0,0,0-.979-.111c-1.089,0-1.7.489-1.7,1.23a1.128,1.128,0,0,0,1.272,1.118,1.754,1.754,0,0,0,1.412-.685V21.531Zm4.065-5.381a2.48,2.48,0,0,1,.937-.224v1.929h2.026a3.537,3.537,0,0,1,.042.81h-2.068V22.51c0,.909.126,1.3.909,1.3a5.507,5.507,0,0,0,1.3-.181.912.912,0,0,1,.014.181,1.262,1.262,0,0,1-.14.545,4.5,4.5,0,0,1-1.72.378c-1.075,0-1.621-.588-1.621-2.028,0-.825.014-2.628.071-4.04h-.965a2.195,2.195,0,0,1,.169-.726,4.479,4.479,0,0,1,.81-.252Zm4.22,2.488a1.62,1.62,0,0,1,.252-.741,4.105,4.105,0,0,1,1.258-.2,2.979,2.979,0,0,1,.727.083v5.843a6.421,6.421,0,0,1,1.1.2,2,2,0,0,1,.041.433,1.375,1.375,0,0,1-.014.238h-3.438a1.953,1.953,0,0,1,.2-.628,5.088,5.088,0,0,1,.895-.266V18.638Zm2.446-3.257a.746.746,0,0,1-.783.825.724.724,0,0,1-.8-.825.748.748,0,0,1,.8-.768A.723.723,0,0,1,161.893,15.381Zm7.994,5.689c0,2.333-1.244,3.662-3.173,3.662-2.041,0-3.187-1.259-3.187-3.662a3.158,3.158,0,0,1,3.187-3.452c1.9,0,3.173,1.23,3.173,3.452Zm-3.173,2.822c1.286,0,1.9-1.09,1.9-2.822,0-1.5-.74-2.628-1.9-2.628-1.244,0-1.915,1.048-1.915,2.628C164.8,22.776,165.525,23.893,166.714,23.893Zm6.679-.251a4.932,4.932,0,0,1,1.02.181,2.142,2.142,0,0,1,.028.671h-3.354a1.942,1.942,0,0,1,.2-.628,5.081,5.081,0,0,1,.9-.266V18.638h-1.02a1.613,1.613,0,0,1,.252-.741,3.523,3.523,0,0,1,1.16-.2,2.42,2.42,0,0,1,.656.083v1.02h.14a2.511,2.511,0,0,1,2.251-1.187c1.1,0,2.082.349,2.082,2.515,0,1.174-.028,2.321-.083,3.508a6.176,6.176,0,0,1,1.132.181,2.029,2.029,0,0,1,.041.433,1.336,1.336,0,0,1-.014.238h-3.313a1.944,1.944,0,0,1,.2-.628,4.709,4.709,0,0,1,.8-.266V20.33c0-1.076-.335-1.761-1.313-1.761a2.468,2.468,0,0,0-1.747.9Z" transform="translate(-46.461 -8.638)"/><path class="a" d="M22.153,11.078A11.076,11.076,0,1,0,11.076,22.154,11.077,11.077,0,0,0,22.153,11.078Z"/><path class="b" d="M25.416,23.85l-2.531-.6v-5.26l2.53-.6a.587.587,0,0,0,.453-.571V15.777H17.692v1.044a.587.587,0,0,0,.452.571l2.53.6v5.26l-2.529.6a.588.588,0,0,0-.453.572v1.044h8.176V24.422a.588.588,0,0,0-.452-.572Z" transform="translate(-10.704 -9.545)"/></svg>