<svg xmlns="http://www.w3.org/2000/svg" width="86.899" height="18.563" viewBox="0 0 86.899 18.563"><defs><style>.a{fill:#737373;}.b{fill:#f25022;}.c{fill:#7fba00;}.d{fill:#00a4ef;}.e{fill:#ffb900;}</style></defs><path class="a" d="M174.162,27.9l-.518,1.468H173.6a10.423,10.423,0,0,0-.5-1.439l-2.777-6.979H167.6V32.072h1.8V25.208c0-.432,0-.921-.014-1.525-.014-.3-.043-.532-.058-.705h.043a6.722,6.722,0,0,0,.259.95l3.338,8.116h1.266l3.31-8.188a8.718,8.718,0,0,0,.216-.878h.043c-.043.82-.072,1.554-.086,2v7.051h1.914V20.92h-2.619Zm7.281-3.842h1.871v7.972h-1.871Zm.95-3.367a1.121,1.121,0,0,0-.791.317,1.061,1.061,0,0,0,0,1.54,1.109,1.109,0,0,0,.791.3,1.148,1.148,0,0,0,.791-.3,1.012,1.012,0,0,0,.331-.763,1.067,1.067,0,0,0-.331-.777,1.05,1.05,0,0,0-.791-.317m7.555,3.3a5.218,5.218,0,0,0-1.05-.115,4.514,4.514,0,0,0-2.274.561,3.758,3.758,0,0,0-1.5,1.54,4.894,4.894,0,0,0-.518,2.3,4.271,4.271,0,0,0,.5,2.058,3.449,3.449,0,0,0,1.41,1.425,4.151,4.151,0,0,0,2.058.5,4.523,4.523,0,0,0,2.259-.532l.014-.014V29.986l-.072.058a3.216,3.216,0,0,1-.907.475,2.773,2.773,0,0,1-.892.173A2.207,2.207,0,0,1,187.227,30a2.654,2.654,0,0,1-.648-1.885,2.72,2.72,0,0,1,.662-1.943A2.31,2.31,0,0,1,189,25.453a3.062,3.062,0,0,1,1.784.6l.072.058V24.287l-.014-.014a4.339,4.339,0,0,0-.892-.288m6.173-.058a1.974,1.974,0,0,0-1.266.446,2.685,2.685,0,0,0-.719,1.079h-.014v-1.4h-1.871v7.972h1.871V27.957a2.746,2.746,0,0,1,.46-1.684,1.442,1.442,0,0,1,1.209-.648,4.614,4.614,0,0,1,.561.072,1.476,1.476,0,0,1,.446.187l.072.058V24.072l-.043-.014a1.422,1.422,0,0,0-.705-.13m5.094-.043a4.125,4.125,0,0,0-3.094,1.151,4.286,4.286,0,0,0-1.108,3.137,4.1,4.1,0,0,0,1.094,2.979,4.493,4.493,0,0,0,5.957-.072,4.272,4.272,0,0,0,1.108-3.094,4.164,4.164,0,0,0-1.05-3.007,3.787,3.787,0,0,0-2.907-1.094m1.5,6.13a1.886,1.886,0,0,1-1.568.662,1.965,1.965,0,0,1-1.612-.691,2.842,2.842,0,0,1-.576-1.914,3.021,3.021,0,0,1,.576-1.957,1.979,1.979,0,0,1,1.6-.691,1.913,1.913,0,0,1,1.554.662,2.951,2.951,0,0,1,.576,1.943,3.329,3.329,0,0,1-.547,1.986m6.634-2.648a4.481,4.481,0,0,1-1.137-.59.817.817,0,0,1-.216-.6.668.668,0,0,1,.3-.576,1.386,1.386,0,0,1,.82-.216,3.725,3.725,0,0,1,.964.144,2.481,2.481,0,0,1,.835.389l.072.058V24.215l-.043-.014a5.192,5.192,0,0,0-.849-.245,5.769,5.769,0,0,0-.921-.086,3.334,3.334,0,0,0-2.2.691,2.127,2.127,0,0,0-.849,1.756,2.284,2.284,0,0,0,.187.978,2.181,2.181,0,0,0,.576.748,5.015,5.015,0,0,0,1.151.648c.432.187.763.331.964.446a1.953,1.953,0,0,1,.432.345.818.818,0,0,1,.115.446c0,.532-.4.791-1.223.791a3.23,3.23,0,0,1-1.036-.187,4,4,0,0,1-1.05-.532l-.072-.058V31.77l.043.014a5.581,5.581,0,0,0,1.007.317,6.425,6.425,0,0,0,1.079.13,3.5,3.5,0,0,0,2.317-.691,2.2,2.2,0,0,0,.878-1.813,2.018,2.018,0,0,0-.46-1.367,5.834,5.834,0,0,0-1.684-.993m7.08-3.482a4.125,4.125,0,0,0-3.094,1.151,4.347,4.347,0,0,0-1.108,3.137,4.1,4.1,0,0,0,1.094,2.979,4.493,4.493,0,0,0,5.957-.072,4.272,4.272,0,0,0,1.108-3.094,4.164,4.164,0,0,0-1.05-3.007,3.787,3.787,0,0,0-2.907-1.094m1.482,6.13a1.886,1.886,0,0,1-1.568.662,1.947,1.947,0,0,1-1.612-.691,2.843,2.843,0,0,1-.576-1.914,3.021,3.021,0,0,1,.576-1.957,1.979,1.979,0,0,1,1.6-.691,1.933,1.933,0,0,1,1.554.662,2.951,2.951,0,0,1,.576,1.943,3.139,3.139,0,0,1-.547,1.986M230.382,25.6v-1.54H228.5V21.7l-.058.014-1.784.532-.043.014v1.8h-2.82V23.05a1.578,1.578,0,0,1,.317-1.05,1.117,1.117,0,0,1,.878-.345,2.1,2.1,0,0,1,.835.187l.072.043V20.258l-.043-.014a3.6,3.6,0,0,0-2.547.2,2.5,2.5,0,0,0-1.022,1.022,2.944,2.944,0,0,0-.374,1.482v1.108H220.6v1.525h1.309v6.447h1.885V25.6h2.82v4.1c0,1.684.791,2.533,2.374,2.533a4.932,4.932,0,0,0,.791-.086,2.59,2.59,0,0,0,.59-.187l.014-.014V30.4l-.072.058a1.216,1.216,0,0,1-.389.173,1.317,1.317,0,0,1-.374.058,1,1,0,0,1-.82-.3,1.558,1.558,0,0,1-.259-1.022V25.6h1.914Z" transform="translate(-143.483 -17.208)"/><path class="b" d="M0,0H8.821V8.821H0Z"/><path class="c" d="M67.7,0h8.821V8.821H67.7Z" transform="translate(-57.958)"/><path class="d" d="M0,67.7H8.821v8.821H0Z" transform="translate(0 -57.958)"/><path class="e" d="M67.7,67.7h8.821v8.821H67.7Z" transform="translate(-57.958 -57.958)"/></svg>