<svg xmlns="http://www.w3.org/2000/svg" width="65.27" height="15.469" viewBox="0 0 65.27 15.469"><defs><style>.a{fill:#221f20;fill-rule:evenodd;}</style></defs><path class="a" d="M.192,11.644C.181,10.613.093,9.421,0,8.51A.377.377,0,0,1,.32,8.1l.015,0a.38.38,0,0,1,.426.279,4.4,4.4,0,0,0,.545,1.3,3.134,3.134,0,0,0,2.68,1.582,1.985,1.985,0,0,0,2.1-1.939c0-1-.808-1.4-2.39-2-.468-.194-.952-.371-1.421-.581A3.213,3.213,0,0,1,.11,3.746C.11,1.551,1.871.259,4.116.259a5.055,5.055,0,0,1,2.1.433A.378.378,0,0,0,6.689.551l.129-.2a.379.379,0,0,1,.7.176q.107,1.379.307,2.749a.38.38,0,1,1-.73.187,4.841,4.841,0,0,0-.54-1.119A2.648,2.648,0,0,0,4.423,1.115,1.787,1.787,0,0,0,2.6,2.81a1.621,1.621,0,0,0,1.114,1.4c.695.339,1.421.565,2.148.856,1.162.452,2.761,1.147,2.761,3.279,0,2.1-1.679,3.859-4.344,3.859a4.863,4.863,0,0,1-2.688-.737.377.377,0,0,0-.524.125l-.143.236a.38.38,0,0,1-.3.181l-.027,0a.377.377,0,0,1-.408-.372m8.784-.093a.327.327,0,0,1,.272-.324c.244-.04.539-.145.584-.455.048-.372.048-1.341.048-1.583,0-.565-.016-1.486-.016-2.051,0-.811-.272-1.033-.654-1.141a.327.327,0,0,1-.235-.315V5.643A.328.328,0,0,1,9.25,5.32a21.142,21.142,0,0,0,2.658-.7.328.328,0,0,1,.419.208c.013.043.026.083.037.125a.328.328,0,0,0,.485.191,3.768,3.768,0,0,1,2.038-.617,2.984,2.984,0,0,1,1.729.516A2.7,2.7,0,0,1,17.6,7.3V8.72c0,.242-.032,1.5-.032,1.777,0,.408.111.657.645.756a.329.329,0,0,1-.09.65c-.457-.031-1.148-.051-2.284-.051-.64,0-.994.018-1.322.046a.328.328,0,0,1-.358-.327V11.5a.326.326,0,0,1,.242-.316c.472-.128.531-.353.517-1.336l-.032-2.519c-.016-.775-.048-1.663-1.1-1.663a1.757,1.757,0,0,0-1.1.406.331.331,0,0,0-.135.275c.026.809.026,3.106.026,3.824,0,.741.129.946.523,1.05a.323.323,0,0,1,.236.315v.043a.328.328,0,0,1-.349.328c-.549-.035-1.253-.057-2.575-.057a10.638,10.638,0,0,0-1.079.043.328.328,0,0,1-.358-.328v-.017ZM23.043,8.862a.328.328,0,0,0-.411-.316c-.545.138-1.268.456-1.268,1.3a.831.831,0,0,0,.84.92,1.144,1.144,0,0,0,.7-.224.326.326,0,0,0,.144-.272V8.862Zm3.732,1.868a.328.328,0,0,1,.03.485,2.832,2.832,0,0,1-1.969.946,2.093,2.093,0,0,1-1.211-.4,1.751,1.751,0,0,1-.3-.308.323.323,0,0,0-.436-.075,4.607,4.607,0,0,1-2.381.8,1.61,1.61,0,0,1-1.841-1.6c0-1.845,2.84-2.617,4.125-2.848a.326.326,0,0,0,.267-.32,6.444,6.444,0,0,0-.065-1.289.943.943,0,0,0-.92-.565.9.9,0,0,0-.921.679c-.048.21-.048.436-.1.646a.965.965,0,0,1-.985.759.911.911,0,0,1-.969-.92c0-1.2,2.213-2.165,4.215-2.165,1.389,0,2.406.452,2.406,1.793l-.032,3.6c-.016.275-.033.9.387.9a.5.5,0,0,0,.3-.126A.325.325,0,0,1,26.774,10.73Z" transform="translate(0 -0.172)"/><path class="a" d="M40.944,11.19c1.195,0,1.63-1.663,1.63-2.761,0-1.163-.485-2.713-1.679-2.713-1.082,0-1.082,1.115-1.082,1.453,0,.372.017,2.18.017,2.584C39.83,10.27,39.83,11.19,40.944,11.19Zm-3.8-3.827c.029-1.234-.147-1.524-.7-1.676a.312.312,0,0,1-.223-.3V5.3A.308.308,0,0,1,36.5,5a19.237,19.237,0,0,0,2.812-.568.306.306,0,0,1,.382.235c.017.075.034.167.054.282a.309.309,0,0,0,.467.211,3.6,3.6,0,0,1,2.052-.618,3.267,3.267,0,0,1,3.165,3.456,3.891,3.891,0,0,1-3.746,4.134A2.862,2.862,0,0,1,40.3,11.8a.31.31,0,0,0-.459.27v1.864c0,.625.038,1.107.706,1.22a.305.305,0,0,1,.246.3.31.31,0,0,1-.317.31q-1.2-.033-2.4-.04c-.607,0-1,.011-1.517.033a.31.31,0,0,1-.325-.308v-.04A.31.31,0,0,1,36.5,15.1c.6-.1.652-.433.652-.894.016-.307.016-1.259.016-1.615l-.016-5.232Zm16.735,4.667c-.656-.048-1.085-.048-2.8-.048-.94,0-1.315.011-1.865.05a.369.369,0,0,1-.081-.731c.905-.127.944-.454.944-2.5V3.665a5.323,5.323,0,0,0-.145-1.825c-.122-.286-.314-.354-.807-.436a.367.367,0,0,1-.307-.362A.371.371,0,0,1,49.2.657q1.361.036,2.723.037c.911,0,1.494-.02,2-.037a.367.367,0,0,1,.06.732c-.957.12-.957.41-.957,2.551l.016,5.006c.032,1.7.048,1.793.242,2.051a1.023,1.023,0,0,0,.687.294.373.373,0,0,1-.081.74Zm.513-.351a.327.327,0,0,1,.272-.324c.244-.04.539-.145.584-.455.048-.372.048-1.341.048-1.583,0-.565-.016-1.486-.016-2.051,0-.811-.272-1.033-.654-1.141A.327.327,0,0,1,54.4,5.81V5.772a.327.327,0,0,1,.274-.323,21.176,21.176,0,0,0,2.658-.7.328.328,0,0,1,.419.208c.013.043.026.083.037.125a.328.328,0,0,0,.484.191,3.769,3.769,0,0,1,2.039-.617,2.984,2.984,0,0,1,1.728.516,2.7,2.7,0,0,1,.984,2.264.16.16,0,0,1,0,.026V8.849c0,.242-.032,1.5-.032,1.777,0,.408.11.657.645.756a.329.329,0,0,1-.09.65c-.457-.031-1.148-.051-2.283-.051-.641,0-.994.018-1.322.046a.328.328,0,0,1-.358-.327v-.069a.326.326,0,0,1,.242-.316c.472-.128.531-.353.517-1.336L60.307,7.46c-.017-.775-.048-1.663-1.1-1.663a1.759,1.759,0,0,0-1.1.406.331.331,0,0,0-.134.275C58,7.287,58,9.584,58,10.3c0,.741.128.946.523,1.05a.323.323,0,0,1,.236.315v.043a.328.328,0,0,1-.349.328c-.549-.035-1.253-.057-2.575-.057a10.637,10.637,0,0,0-1.079.043A.328.328,0,0,1,54.4,11.7V11.68Zm16.8-1.406a.41.41,0,0,1,.053.62,4.8,4.8,0,0,1-3.346,1.4,3.784,3.784,0,0,1-4.005-3.8c0-2.309,1.97-3.794,4.377-3.794,1.582,0,3.084.694,3.084,1.857a1.034,1.034,0,0,1-1.017,1.017,1.076,1.076,0,0,1-.711-.291c-.145-.129-.178-.21-.485-.9-.145-.307-.468-.856-.969-.856-.937,0-1.2,1.6-1.2,2.39,0,1.825,1.034,3.052,2.164,3.052a2.313,2.313,0,0,0,1.539-.664.41.41,0,0,1,.511-.026m2.23-.892a1.462,1.462,0,0,1,.016,2.923,1.462,1.462,0,0,1-.016-2.923" transform="translate(-9.625 -0.3)"/></svg>