<svg xmlns="http://www.w3.org/2000/svg" width="126.519" height="15.469" viewBox="0 0 126.519 15.469"><g transform="translate(0 5.666)"><path d="M12.958,22.319H4.492v-2.1H15.409A2.74,2.74,0,0,0,12.576,18.5H4.651c-1.814,0-2.865.668-2.865,2.133v1.56c0,1.273,1.082,2.005,2.674,2.005h8.562v2.228H1.5c.286,1.209,1.209,1.846,2.865,1.846H12.99c1.814,0,2.705-.7,2.705-2.2v-1.56C15.7,23.147,14.645,22.415,12.958,22.319Z" transform="translate(-1.5 -18.5)"/></g><g transform="translate(18.302 5.697)"><path d="M69.44,18.6H59v9.771h2.96V24.616h7.7c2.133,0,3.31-.732,3.31-2.451V21.083C72.941,19.491,71.6,18.6,69.44,18.6Zm.955,3.119c0,.7-.127,1.082-1.273,1.082H61.96l.032-2.546h7c1.273,0,1.432.382,1.432,1.05v.414Z" transform="translate(-59 -18.6)"/></g><g transform="translate(34.248 5.284)"><path d="M115.72,17.3l-1.782,2.2,3.024,4.17h-6.3l-1.56,1.655h9.1l1.56,2.164h3.5Z" transform="translate(-109.1 -17.3)"/></g><g transform="translate(51.085 5.666)"><path d="M164.992,20.219h11.076c-.286-1.146-1.4-1.719-2.992-1.719H164.8c-1.432,0-2.8.573-2.8,2.133v5.475c0,1.56,1.369,2.133,2.8,2.133h8.371c1.91,0,2.578-.541,2.9-1.846H164.992V20.219Z" transform="translate(-162 -18.5)"/></g><g transform="translate(69.196 5.697)"><path d="M221.892,33.547V30.555h5.952V28.9H218.9v6.493h13.209V33.547Z" transform="translate(-218.9 -25.622)"/><rect width="13.336" height="1.719" transform="translate(0.318)"/></g><g transform="translate(86.415 5.697)"><path d="M277.647,18.6H273l5.475,4.01c.8-.541,1.719-1.114,2.546-1.591Zm6.748,5c-.8.541-1.591,1.146-2.355,1.719l4.138,3.024h4.679L284.395,23.6Z" transform="translate(-273 -18.6)"/></g><g transform="translate(86.097 0)"><path d="M312.423.7c-25.463,1.464-37.24,12.35-39.882,14.928l-.541.509h4.711C289.442,3.374,307.744,1.114,312.423.7Z" transform="translate(-272 -0.7)"/></g></svg>