<svg xmlns="http://www.w3.org/2000/svg" width="83.042" height="10.828" viewBox="0 0 83.042 10.828"><defs><style>.a{fill:#e82127;}</style></defs><g transform="translate(0 0)"><g transform="translate(0 0)"><g transform="translate(70.621 0.01)"><path class="a" d="M266.6,403.28v6.53H268.7v-4.347h7.621v4.347h2.092v-6.518L266.6,403.28" transform="translate(-266.277 -399.004)"/><path class="a" d="M267.7,391.094h8.052a2.972,2.972,0,0,0,2.185-2.164H265.515a2.983,2.983,0,0,0,2.184,2.164" transform="translate(-265.515 -388.93)"/></g><g transform="translate(54.953 0.015)"><path class="a" d="M222.586,399.753a2.994,2.994,0,0,0,1.841-2.128h-9.392l.006-8.677-2.105.006v10.8h9.65" transform="translate(-212.936 -388.948)"/></g><g transform="translate(36.599 0.018)"><path class="a" d="M154.04,391.084h7.436a3.26,3.26,0,0,0,2.292-2.126H151.955v6.382h9.668v2.239l-7.584.006a4.23,4.23,0,0,0-2.7,2.183l.614-.011H163.7v-6.539H154.04v-2.133" transform="translate(-151.341 -388.958)"/></g><g transform="translate(18.755)"><path class="a" d="M93.646,391.063H101.7a2.969,2.969,0,0,0,2.185-2.165H91.461a2.984,2.984,0,0,0,2.185,2.165" transform="translate(-91.461 -388.898)"/><path class="a" d="M93.646,405.387H101.7a2.964,2.964,0,0,0,2.185-2.164H91.461a2.978,2.978,0,0,0,2.185,2.164" transform="translate(-91.461 -398.954)"/><path class="a" d="M93.646,420.1H101.7a2.969,2.969,0,0,0,2.185-2.164H91.461a2.983,2.983,0,0,0,2.185,2.164" transform="translate(-91.461 -409.285)"/></g><g transform="translate(0 0.005)"><path class="a" d="M28.524,388.937a3,3,0,0,0,2.18,2.15h3.388l.173.068v8.55h2.116v-8.55l.192-.068h3.391a3.046,3.046,0,0,0,2.171-2.15v-.021H28.524v.021" transform="translate(-28.524 -388.916)"/></g></g></g></svg>