<svg xmlns="http://www.w3.org/2000/svg" xmlns:xlink="http://www.w3.org/1999/xlink" width="28.55" height="23.203" viewBox="0 0 28.55 23.203"><defs><style>.a{clip-path:url(#a);}.b{fill:#5ae;}</style><clipPath id="a"><path d="M0-125.89H28.55v-23.2H0Z" transform="translate(0 149.093)"/></clipPath></defs><g class="a" transform="translate(0 0)"><path class="b" d="M28.523-146.533a11.67,11.67,0,0,1-3.362.923,5.875,5.875,0,0,0,2.569-3.237,11.626,11.626,0,0,1-3.718,1.42,5.855,5.855,0,0,0-9.983,5.347A16.593,16.593,0,0,1,1.957-148.2a5.849,5.849,0,0,0,1.813,7.811,5.826,5.826,0,0,1-2.652-.733c0,.025,0,.049,0,.074a5.863,5.863,0,0,0,4.7,5.743,6.18,6.18,0,0,1-2.652.1,5.894,5.894,0,0,0,5.472,4.073A11.852,11.852,0,0,1-.032-128.71c13.22,7.769,25.689-2.4,25.647-14.035q0-.378-.016-.756a12.138,12.138,0,0,0,2.924-3.028" transform="translate(0.027 149.29)"/></g></svg>